
<svg width="219px" height="30px" viewBox="0 0 219 30" version="1.1" xmlns="http://www.w3.org/2000/svg" xmlns:xlink="http://www.w3.org/1999/xlink">
    <!-- Generator: Sketch 51.3 (57544) - http://www.bohemiancoding.com/sketch -->
    <desc>Created with Sketch.</desc>
    <defs></defs>
    <g id="Page-1" stroke="none" stroke-width="1" fill="none" fill-rule="evenodd">
        <g id="Desktop" transform="translate(-91.000000, -79.000000)" fill="#0A0B09">
            <g id="Group">
                <g id="logo" transform="translate(91.000000, 79.000000)">
                    <g>
                        <polygon id="Fill-11" points="173.445 5.074 181.462 5.074 181.462 1.111 173.445 1.111"></polygon>
                        <path d="M18.069,8.499 C21.24,8.499 25.231,8.846 28.007,11.566 L28.426,11.979 L33.232,6.597 L32.812,6.221 C29.103,2.906 24.786,1.556 17.906,1.556 C6.641,1.556 0.929,5.948 0.929,14.604 L0.929,16.484 C0.929,22.468 3.749,29.592 17.261,29.592 C24.83,29.592 29.479,28.091 32.794,24.579 L33.126,24.225 L28.881,18.752 L28.43,19.216 C26.196,21.497 22.762,22.662 18.232,22.662 C12.07,22.662 8.946,20.469 8.946,16.174 L8.946,14.874 C8.946,10.645 12.017,8.499 18.069,8.499" id="Fill-12"></path>
                        <path d="M43.498,14.874 C43.498,9.604 48.458,8.499 52.621,8.499 C56.785,8.499 61.744,9.592 61.744,14.874 L61.744,16.171 C61.744,21.534 56.782,22.659 52.621,22.659 C48.461,22.659 43.498,21.528 43.498,16.171 L43.498,14.874 Z M52.621,1.556 C38.455,1.556 35.482,8.652 35.482,14.604 L35.482,16.484 C35.482,22.461 38.455,29.585 52.621,29.585 C66.788,29.585 69.761,22.468 69.761,16.484 L69.761,14.604 C69.761,6.19 63.674,1.556 52.621,1.556 Z" id="Fill-13"></path>
                        <path d="M99.398,20.453 C96.494,21.932 93.282,22.704 90.024,22.706 C86.713,22.706 83.323,21.81 83.323,15.09 L83.323,11.437 L99.974,11.437 L99.974,7.477 L83.323,7.477 L83.323,0.858 L75.253,0.858 L75.253,15.629 C75.253,27.9 82.248,29.592 89.811,29.592 C94.899,29.592 99.441,28.539 102.28,26.703 L102.684,26.443 L99.933,20.178 L99.398,20.453" id="Fill-14"></path>
                        <path d="M122.311,8.499 C125.757,8.499 129.874,9.482 130.178,14.106 L114.122,14.106 C114.366,10.385 117.12,8.499 122.311,8.499 Z M122.311,1.556 C108.899,1.556 106.086,8.477 106.086,14.282 L106.086,16.813 C106.086,27.377 114.88,29.592 122.258,29.592 C129.636,29.592 134.369,28.047 137.731,24.579 L138.147,24.147 L132.884,19.592 L132.508,19.965 C130.525,21.948 127.844,22.653 122.255,22.653 C118.915,22.653 116.594,21.992 115.362,20.688 C114.504,19.783 114.087,18.618 114.109,17.129 L138.232,17.129 L138.232,14.291 C138.213,3.765 129.564,1.556 122.311,1.556 Z" id="Fill-15"></path>
                        <path d="M202.853,8.499 C206.299,8.499 210.416,9.482 210.719,14.106 L194.664,14.106 C194.908,10.385 197.671,8.499 202.853,8.499 Z M218.755,14.291 C218.755,3.774 210.105,1.566 202.853,1.566 C189.441,1.566 186.628,8.486 186.628,14.291 L186.628,16.822 C186.628,27.386 195.422,29.601 202.8,29.601 C210.177,29.601 214.911,28.057 218.273,24.589 L218.686,24.159 L213.426,19.592 L213.053,19.965 C211.07,21.948 208.389,22.653 202.8,22.653 C199.46,22.653 197.139,21.992 195.907,20.688 C195.046,19.783 194.632,18.618 194.654,17.129 L218.777,17.129 L218.755,14.291 Z" id="Fill-16"></path>
                        <path d="M160.6,1.556 C157.007,1.556 153.855,2.869 151.8,5.19 L151.8,2.418 L144.322,2.418 L144.322,28.677 L152.339,28.677 L152.339,12.725 C153.592,9.962 156.114,8.379 159.253,8.379 C161.29,8.361 163.274,9.023 164.892,10.259 L165.362,10.594 L169.363,4.749 L168.971,4.416 C166.684,2.496 163.94,1.556 160.6,1.556" id="Fill-17"></path>
                        <polygon id="Fill-18" points="173.445 28.677 181.462 28.677 181.462 8.151 173.445 8.151"></polygon>
                    </g>
                </g>
            </g>
        </g>
    </g>
</svg>